<mxfile host="Electron" agent="Mozilla/5.0 (Windows NT 10.0; Win64; x64) AppleWebKit/537.36 (KHTML, like Gecko) draw.io/24.7.17 Chrome/128.0.6613.36 Electron/32.0.1 Safari/537.36" version="24.7.17">
  <diagram name="Page-1" id="PJsMFGOXNKpa5AQPbNQQ">
    <mxGraphModel dx="1568" dy="919" grid="1" gridSize="10" guides="1" tooltips="1" connect="1" arrows="1" fold="1" page="1" pageScale="1" pageWidth="827" pageHeight="1169" math="0" shadow="0">
      <root>
        <mxCell id="0" />
        <mxCell id="1" parent="0" />
        <mxCell id="m2up6miVIFS3Wzlb9-FL-1" value="Cinemas" style="swimlane;fontStyle=1;align=center;verticalAlign=top;childLayout=stackLayout;horizontal=1;startSize=26;horizontalStack=0;resizeParent=1;resizeParentMax=0;resizeLast=0;collapsible=1;marginBottom=0;whiteSpace=wrap;html=1;" parent="1" vertex="1">
          <mxGeometry x="430" y="50" width="180" height="134" as="geometry" />
        </mxCell>
        <mxCell id="m2up6miVIFS3Wzlb9-FL-2" value="+cinemaId : Int&lt;div&gt;+name : VARCHAR(250)&lt;/div&gt;&lt;div&gt;+address: VARCHAR(250)&lt;/div&gt;&lt;div&gt;+country : VARCHAR(250)&lt;/div&gt;&lt;div&gt;&lt;br&gt;&lt;/div&gt;" style="text;strokeColor=none;fillColor=none;align=left;verticalAlign=top;spacingLeft=4;spacingRight=4;overflow=hidden;rotatable=0;points=[[0,0.5],[1,0.5]];portConstraint=eastwest;whiteSpace=wrap;html=1;" parent="m2up6miVIFS3Wzlb9-FL-1" vertex="1">
          <mxGeometry y="26" width="180" height="74" as="geometry" />
        </mxCell>
        <mxCell id="m2up6miVIFS3Wzlb9-FL-3" value="" style="line;strokeWidth=1;fillColor=none;align=left;verticalAlign=middle;spacingTop=-1;spacingLeft=3;spacingRight=3;rotatable=0;labelPosition=right;points=[];portConstraint=eastwest;strokeColor=inherit;" parent="m2up6miVIFS3Wzlb9-FL-1" vertex="1">
          <mxGeometry y="100" width="180" height="8" as="geometry" />
        </mxCell>
        <mxCell id="m2up6miVIFS3Wzlb9-FL-4" value="+ method(type): type" style="text;strokeColor=none;fillColor=none;align=left;verticalAlign=top;spacingLeft=4;spacingRight=4;overflow=hidden;rotatable=0;points=[[0,0.5],[1,0.5]];portConstraint=eastwest;whiteSpace=wrap;html=1;" parent="m2up6miVIFS3Wzlb9-FL-1" vertex="1">
          <mxGeometry y="108" width="180" height="26" as="geometry" />
        </mxCell>
        <mxCell id="m2up6miVIFS3Wzlb9-FL-9" value="Reservation" style="swimlane;fontStyle=1;align=center;verticalAlign=top;childLayout=stackLayout;horizontal=1;startSize=26;horizontalStack=0;resizeParent=1;resizeParentMax=0;resizeLast=0;collapsible=1;marginBottom=0;whiteSpace=wrap;html=1;fillColor=#ffe6cc;strokeColor=#d79b00;" parent="1" vertex="1">
          <mxGeometry x="690" y="464" width="180" height="150" as="geometry" />
        </mxCell>
        <mxCell id="m2up6miVIFS3Wzlb9-FL-10" value="+reservationId : Int&lt;div&gt;+userId : Int&lt;/div&gt;&lt;div&gt;+cinemaId : Int&lt;/div&gt;&lt;div&gt;+movieTimesId : Int&lt;/div&gt;&lt;div&gt;+locationReserved : Int&lt;/div&gt;" style="text;strokeColor=none;fillColor=none;align=left;verticalAlign=top;spacingLeft=4;spacingRight=4;overflow=hidden;rotatable=0;points=[[0,0.5],[1,0.5]];portConstraint=eastwest;whiteSpace=wrap;html=1;" parent="m2up6miVIFS3Wzlb9-FL-9" vertex="1">
          <mxGeometry y="26" width="180" height="84" as="geometry" />
        </mxCell>
        <mxCell id="m2up6miVIFS3Wzlb9-FL-11" value="" style="line;strokeWidth=1;fillColor=none;align=left;verticalAlign=middle;spacingTop=-1;spacingLeft=3;spacingRight=3;rotatable=0;labelPosition=right;points=[];portConstraint=eastwest;strokeColor=inherit;" parent="m2up6miVIFS3Wzlb9-FL-9" vertex="1">
          <mxGeometry y="110" width="180" height="8" as="geometry" />
        </mxCell>
        <mxCell id="m2up6miVIFS3Wzlb9-FL-12" value="+ method(type): type" style="text;strokeColor=none;fillColor=none;align=left;verticalAlign=top;spacingLeft=4;spacingRight=4;overflow=hidden;rotatable=0;points=[[0,0.5],[1,0.5]];portConstraint=eastwest;whiteSpace=wrap;html=1;" parent="m2up6miVIFS3Wzlb9-FL-9" vertex="1">
          <mxGeometry y="118" width="180" height="32" as="geometry" />
        </mxCell>
        <mxCell id="m2up6miVIFS3Wzlb9-FL-13" value="Incident" style="swimlane;fontStyle=1;align=center;verticalAlign=top;childLayout=stackLayout;horizontal=1;startSize=26;horizontalStack=0;resizeParent=1;resizeParentMax=0;resizeLast=0;collapsible=1;marginBottom=0;whiteSpace=wrap;html=1;" parent="1" vertex="1">
          <mxGeometry x="160" y="464" width="180" height="144" as="geometry" />
        </mxCell>
        <mxCell id="m2up6miVIFS3Wzlb9-FL-14" value="+incidentId : int&lt;div&gt;+roomId : int&lt;/div&gt;&lt;div&gt;+seatId : int&lt;/div&gt;&lt;div&gt;+date : DATE&lt;/div&gt;&lt;div&gt;+description : VARCHAR(250)&lt;/div&gt;" style="text;strokeColor=none;fillColor=none;align=left;verticalAlign=top;spacingLeft=4;spacingRight=4;overflow=hidden;rotatable=0;points=[[0,0.5],[1,0.5]];portConstraint=eastwest;whiteSpace=wrap;html=1;" parent="m2up6miVIFS3Wzlb9-FL-13" vertex="1">
          <mxGeometry y="26" width="180" height="84" as="geometry" />
        </mxCell>
        <mxCell id="m2up6miVIFS3Wzlb9-FL-15" value="" style="line;strokeWidth=1;fillColor=none;align=left;verticalAlign=middle;spacingTop=-1;spacingLeft=3;spacingRight=3;rotatable=0;labelPosition=right;points=[];portConstraint=eastwest;strokeColor=inherit;" parent="m2up6miVIFS3Wzlb9-FL-13" vertex="1">
          <mxGeometry y="110" width="180" height="8" as="geometry" />
        </mxCell>
        <mxCell id="m2up6miVIFS3Wzlb9-FL-16" value="+ method(type): type" style="text;strokeColor=none;fillColor=none;align=left;verticalAlign=top;spacingLeft=4;spacingRight=4;overflow=hidden;rotatable=0;points=[[0,0.5],[1,0.5]];portConstraint=eastwest;whiteSpace=wrap;html=1;" parent="m2up6miVIFS3Wzlb9-FL-13" vertex="1">
          <mxGeometry y="118" width="180" height="26" as="geometry" />
        </mxCell>
        <mxCell id="m2up6miVIFS3Wzlb9-FL-17" value="Rooms" style="swimlane;fontStyle=1;align=center;verticalAlign=top;childLayout=stackLayout;horizontal=1;startSize=26;horizontalStack=0;resizeParent=1;resizeParentMax=0;resizeLast=0;collapsible=1;marginBottom=0;whiteSpace=wrap;html=1;" parent="1" vertex="1">
          <mxGeometry x="430" y="270" width="180" height="124" as="geometry" />
        </mxCell>
        <mxCell id="m2up6miVIFS3Wzlb9-FL-18" value="+roomId : Int&lt;div&gt;+cinemaId: Int&lt;/div&gt;&lt;div&gt;+name : VARCHAR(250)&lt;/div&gt;&lt;div&gt;+quality : VARCHAR(50)&lt;/div&gt;" style="text;strokeColor=none;fillColor=none;align=left;verticalAlign=top;spacingLeft=4;spacingRight=4;overflow=hidden;rotatable=0;points=[[0,0.5],[1,0.5]];portConstraint=eastwest;whiteSpace=wrap;html=1;" parent="m2up6miVIFS3Wzlb9-FL-17" vertex="1">
          <mxGeometry y="26" width="180" height="64" as="geometry" />
        </mxCell>
        <mxCell id="m2up6miVIFS3Wzlb9-FL-19" value="" style="line;strokeWidth=1;fillColor=none;align=left;verticalAlign=middle;spacingTop=-1;spacingLeft=3;spacingRight=3;rotatable=0;labelPosition=right;points=[];portConstraint=eastwest;strokeColor=inherit;" parent="m2up6miVIFS3Wzlb9-FL-17" vertex="1">
          <mxGeometry y="90" width="180" height="8" as="geometry" />
        </mxCell>
        <mxCell id="m2up6miVIFS3Wzlb9-FL-20" value="+ method(type): type" style="text;strokeColor=none;fillColor=none;align=left;verticalAlign=top;spacingLeft=4;spacingRight=4;overflow=hidden;rotatable=0;points=[[0,0.5],[1,0.5]];portConstraint=eastwest;whiteSpace=wrap;html=1;" parent="m2up6miVIFS3Wzlb9-FL-17" vertex="1">
          <mxGeometry y="98" width="180" height="26" as="geometry" />
        </mxCell>
        <mxCell id="m2up6miVIFS3Wzlb9-FL-21" value="MovieTimes" style="swimlane;fontStyle=1;align=center;verticalAlign=top;childLayout=stackLayout;horizontal=1;startSize=26;horizontalStack=0;resizeParent=1;resizeParentMax=0;resizeLast=0;collapsible=1;marginBottom=0;whiteSpace=wrap;html=1;" parent="1" vertex="1">
          <mxGeometry x="690" y="680" width="180" height="184" as="geometry" />
        </mxCell>
        <mxCell id="R6itS-iFLOPnTj6HhxoP-23" value="Relation" style="endArrow=open;html=1;endSize=12;startArrow=diamondThin;startSize=14;startFill=0;edgeStyle=orthogonalEdgeStyle;rounded=0;entryX=0.494;entryY=1.01;entryDx=0;entryDy=0;entryPerimeter=0;" edge="1" parent="m2up6miVIFS3Wzlb9-FL-21" target="m2up6miVIFS3Wzlb9-FL-12">
          <mxGeometry relative="1" as="geometry">
            <mxPoint x="90" as="sourcePoint" />
            <mxPoint x="92" y="-20" as="targetPoint" />
          </mxGeometry>
        </mxCell>
        <mxCell id="R6itS-iFLOPnTj6HhxoP-24" value="0..n" style="edgeLabel;resizable=0;html=1;align=left;verticalAlign=top;" connectable="0" vertex="1" parent="R6itS-iFLOPnTj6HhxoP-23">
          <mxGeometry x="-1" relative="1" as="geometry">
            <mxPoint x="10" y="-20" as="offset" />
          </mxGeometry>
        </mxCell>
        <mxCell id="R6itS-iFLOPnTj6HhxoP-25" value="1" style="edgeLabel;resizable=0;html=1;align=right;verticalAlign=top;" connectable="0" vertex="1" parent="R6itS-iFLOPnTj6HhxoP-23">
          <mxGeometry x="1" relative="1" as="geometry" />
        </mxCell>
        <mxCell id="m2up6miVIFS3Wzlb9-FL-22" value="+movieTimesId: Int&lt;div&gt;+movieId : Int&lt;/div&gt;&lt;div&gt;+cinemaId : Int&lt;/div&gt;&lt;div&gt;+roomId : Int&lt;/div&gt;&lt;div&gt;+day : DATE&lt;/div&gt;&lt;div&gt;+startTime : TIME&lt;/div&gt;&lt;div&gt;+endTime : TIME&lt;/div&gt;&lt;div&gt;+price : Int&lt;/div&gt;" style="text;strokeColor=none;fillColor=none;align=left;verticalAlign=top;spacingLeft=4;spacingRight=4;overflow=hidden;rotatable=0;points=[[0,0.5],[1,0.5]];portConstraint=eastwest;whiteSpace=wrap;html=1;" parent="m2up6miVIFS3Wzlb9-FL-21" vertex="1">
          <mxGeometry y="26" width="180" height="124" as="geometry" />
        </mxCell>
        <mxCell id="m2up6miVIFS3Wzlb9-FL-23" value="" style="line;strokeWidth=1;fillColor=none;align=left;verticalAlign=middle;spacingTop=-1;spacingLeft=3;spacingRight=3;rotatable=0;labelPosition=right;points=[];portConstraint=eastwest;strokeColor=inherit;" parent="m2up6miVIFS3Wzlb9-FL-21" vertex="1">
          <mxGeometry y="150" width="180" height="8" as="geometry" />
        </mxCell>
        <mxCell id="m2up6miVIFS3Wzlb9-FL-24" value="+ method(type): type" style="text;strokeColor=none;fillColor=none;align=left;verticalAlign=top;spacingLeft=4;spacingRight=4;overflow=hidden;rotatable=0;points=[[0,0.5],[1,0.5]];portConstraint=eastwest;whiteSpace=wrap;html=1;" parent="m2up6miVIFS3Wzlb9-FL-21" vertex="1">
          <mxGeometry y="158" width="180" height="26" as="geometry" />
        </mxCell>
        <mxCell id="m2up6miVIFS3Wzlb9-FL-25" value="Reviews" style="swimlane;fontStyle=1;align=center;verticalAlign=top;childLayout=stackLayout;horizontal=1;startSize=26;horizontalStack=0;resizeParent=1;resizeParentMax=0;resizeLast=0;collapsible=1;marginBottom=0;whiteSpace=wrap;html=1;fillColor=#ffe6cc;strokeColor=#d79b00;" parent="1" vertex="1">
          <mxGeometry x="380" y="945" width="180" height="174" as="geometry" />
        </mxCell>
        <mxCell id="m2up6miVIFS3Wzlb9-FL-26" value="+reviewsId : Int&lt;div&gt;+userId : Int&lt;/div&gt;&lt;div&gt;+movieId : Int&lt;/div&gt;&lt;div&gt;+rating : Int&lt;/div&gt;&lt;div&gt;+createdDate : DATE&lt;/div&gt;&lt;div&gt;+comment : VARCHAR(250)&lt;/div&gt;&lt;div&gt;+status : BOOLEAN&lt;/div&gt;" style="text;strokeColor=none;fillColor=none;align=left;verticalAlign=top;spacingLeft=4;spacingRight=4;overflow=hidden;rotatable=0;points=[[0,0.5],[1,0.5]];portConstraint=eastwest;whiteSpace=wrap;html=1;" parent="m2up6miVIFS3Wzlb9-FL-25" vertex="1">
          <mxGeometry y="26" width="180" height="114" as="geometry" />
        </mxCell>
        <mxCell id="m2up6miVIFS3Wzlb9-FL-27" value="" style="line;strokeWidth=1;fillColor=none;align=left;verticalAlign=middle;spacingTop=-1;spacingLeft=3;spacingRight=3;rotatable=0;labelPosition=right;points=[];portConstraint=eastwest;strokeColor=inherit;" parent="m2up6miVIFS3Wzlb9-FL-25" vertex="1">
          <mxGeometry y="140" width="180" height="8" as="geometry" />
        </mxCell>
        <mxCell id="m2up6miVIFS3Wzlb9-FL-28" value="+ method(type): type" style="text;strokeColor=none;fillColor=none;align=left;verticalAlign=top;spacingLeft=4;spacingRight=4;overflow=hidden;rotatable=0;points=[[0,0.5],[1,0.5]];portConstraint=eastwest;whiteSpace=wrap;html=1;" parent="m2up6miVIFS3Wzlb9-FL-25" vertex="1">
          <mxGeometry y="148" width="180" height="26" as="geometry" />
        </mxCell>
        <mxCell id="m2up6miVIFS3Wzlb9-FL-29" value="Movies" style="swimlane;fontStyle=1;align=center;verticalAlign=top;childLayout=stackLayout;horizontal=1;startSize=26;horizontalStack=0;resizeParent=1;resizeParentMax=0;resizeLast=0;collapsible=1;marginBottom=0;whiteSpace=wrap;html=1;" parent="1" vertex="1">
          <mxGeometry x="690" y="950" width="180" height="164" as="geometry" />
        </mxCell>
        <mxCell id="m2up6miVIFS3Wzlb9-FL-30" value="+movieId : Int&lt;div&gt;+releaseDate : DATE&lt;/div&gt;&lt;div&gt;+title : VARCHAR(250)&lt;/div&gt;&lt;div&gt;+genre : VARCHAR(250)&lt;/div&gt;&lt;div&gt;+description : VARCHAR(250)&lt;/div&gt;&lt;div&gt;+duration : Int&lt;/div&gt;" style="text;strokeColor=none;fillColor=none;align=left;verticalAlign=top;spacingLeft=4;spacingRight=4;overflow=hidden;rotatable=0;points=[[0,0.5],[1,0.5]];portConstraint=eastwest;whiteSpace=wrap;html=1;" parent="m2up6miVIFS3Wzlb9-FL-29" vertex="1">
          <mxGeometry y="26" width="180" height="104" as="geometry" />
        </mxCell>
        <mxCell id="m2up6miVIFS3Wzlb9-FL-31" value="" style="line;strokeWidth=1;fillColor=none;align=left;verticalAlign=middle;spacingTop=-1;spacingLeft=3;spacingRight=3;rotatable=0;labelPosition=right;points=[];portConstraint=eastwest;strokeColor=inherit;" parent="m2up6miVIFS3Wzlb9-FL-29" vertex="1">
          <mxGeometry y="130" width="180" height="8" as="geometry" />
        </mxCell>
        <mxCell id="m2up6miVIFS3Wzlb9-FL-32" value="+ method(type): type" style="text;strokeColor=none;fillColor=none;align=left;verticalAlign=top;spacingLeft=4;spacingRight=4;overflow=hidden;rotatable=0;points=[[0,0.5],[1,0.5]];portConstraint=eastwest;whiteSpace=wrap;html=1;" parent="m2up6miVIFS3Wzlb9-FL-29" vertex="1">
          <mxGeometry y="138" width="180" height="26" as="geometry" />
        </mxCell>
        <mxCell id="m2up6miVIFS3Wzlb9-FL-5" value="Users" style="swimlane;fontStyle=1;align=center;verticalAlign=top;childLayout=stackLayout;horizontal=1;startSize=26;horizontalStack=0;resizeParent=1;resizeParentMax=0;resizeLast=0;collapsible=1;marginBottom=0;whiteSpace=wrap;html=1;" parent="1" vertex="1">
          <mxGeometry x="50" y="120" width="180" height="174" as="geometry">
            <mxRectangle x="100" y="50" width="70" height="30" as="alternateBounds" />
          </mxGeometry>
        </mxCell>
        <mxCell id="m2up6miVIFS3Wzlb9-FL-6" value="+userId : Int&lt;div&gt;+firstName : VARCHAR(250)&lt;/div&gt;&lt;div&gt;+lastName : VARCHAR(250)&lt;/div&gt;&lt;div&gt;+email : VARCHAR(250)&lt;/div&gt;&lt;div&gt;+password :&amp;nbsp;VARCHAR(255)&lt;/div&gt;&lt;div&gt;+role : VARCHAR(50)&lt;/div&gt;&lt;div&gt;+userName : VARCHAR(250)&lt;br&gt;&lt;div&gt;&lt;br&gt;&lt;/div&gt;&lt;/div&gt;" style="text;strokeColor=none;fillColor=none;align=left;verticalAlign=top;spacingLeft=4;spacingRight=4;overflow=hidden;rotatable=0;points=[[0,0.5],[1,0.5]];portConstraint=eastwest;whiteSpace=wrap;html=1;" parent="m2up6miVIFS3Wzlb9-FL-5" vertex="1">
          <mxGeometry y="26" width="180" height="114" as="geometry" />
        </mxCell>
        <mxCell id="m2up6miVIFS3Wzlb9-FL-7" value="" style="line;strokeWidth=1;fillColor=none;align=left;verticalAlign=middle;spacingTop=-1;spacingLeft=3;spacingRight=3;rotatable=0;labelPosition=right;points=[];portConstraint=eastwest;strokeColor=inherit;" parent="m2up6miVIFS3Wzlb9-FL-5" vertex="1">
          <mxGeometry y="140" width="180" height="8" as="geometry" />
        </mxCell>
        <mxCell id="m2up6miVIFS3Wzlb9-FL-8" value="+ method(type): type" style="text;strokeColor=none;fillColor=none;align=left;verticalAlign=top;spacingLeft=4;spacingRight=4;overflow=hidden;rotatable=0;points=[[0,0.5],[1,0.5]];portConstraint=eastwest;whiteSpace=wrap;html=1;" parent="m2up6miVIFS3Wzlb9-FL-5" vertex="1">
          <mxGeometry y="148" width="180" height="26" as="geometry" />
        </mxCell>
        <mxCell id="R6itS-iFLOPnTj6HhxoP-6" value="&lt;strong data-end=&quot;399&quot; data-start=&quot;384&quot;&gt;Locations&lt;/strong&gt;" style="swimlane;fontStyle=1;align=center;verticalAlign=top;childLayout=stackLayout;horizontal=1;startSize=26;horizontalStack=0;resizeParent=1;resizeParentMax=0;resizeLast=0;collapsible=1;marginBottom=0;whiteSpace=wrap;html=1;" vertex="1" parent="1">
          <mxGeometry x="430" y="460" width="180" height="154" as="geometry" />
        </mxCell>
        <mxCell id="R6itS-iFLOPnTj6HhxoP-7" value="+locationId: Int&lt;div&gt;+roomId: Int&lt;/div&gt;&lt;div&gt;+type: VARCHAR(50)&lt;/div&gt;&lt;div&gt;+name : VARCHAR(250)&lt;/div&gt;&lt;div&gt;+row : Int&lt;/div&gt;&lt;div&gt;+&lt;span style=&quot;background-color: initial;&quot;&gt;Column: Int&lt;/span&gt;&lt;/div&gt;&lt;div&gt;&lt;br&gt;&lt;/div&gt;" style="text;strokeColor=none;fillColor=none;align=left;verticalAlign=top;spacingLeft=4;spacingRight=4;overflow=hidden;rotatable=0;points=[[0,0.5],[1,0.5]];portConstraint=eastwest;whiteSpace=wrap;html=1;" vertex="1" parent="R6itS-iFLOPnTj6HhxoP-6">
          <mxGeometry y="26" width="180" height="94" as="geometry" />
        </mxCell>
        <mxCell id="R6itS-iFLOPnTj6HhxoP-8" value="" style="line;strokeWidth=1;fillColor=none;align=left;verticalAlign=middle;spacingTop=-1;spacingLeft=3;spacingRight=3;rotatable=0;labelPosition=right;points=[];portConstraint=eastwest;strokeColor=inherit;" vertex="1" parent="R6itS-iFLOPnTj6HhxoP-6">
          <mxGeometry y="120" width="180" height="8" as="geometry" />
        </mxCell>
        <mxCell id="R6itS-iFLOPnTj6HhxoP-9" value="+ method(type): type" style="text;strokeColor=none;fillColor=none;align=left;verticalAlign=top;spacingLeft=4;spacingRight=4;overflow=hidden;rotatable=0;points=[[0,0.5],[1,0.5]];portConstraint=eastwest;whiteSpace=wrap;html=1;" vertex="1" parent="R6itS-iFLOPnTj6HhxoP-6">
          <mxGeometry y="128" width="180" height="26" as="geometry" />
        </mxCell>
        <mxCell id="R6itS-iFLOPnTj6HhxoP-10" value="Relation" style="endArrow=open;html=1;endSize=12;startArrow=diamondThin;startSize=14;startFill=0;edgeStyle=orthogonalEdgeStyle;rounded=0;exitX=0.5;exitY=0;exitDx=0;exitDy=0;entryX=0.47;entryY=0.984;entryDx=0;entryDy=0;entryPerimeter=0;" edge="1" parent="1" source="m2up6miVIFS3Wzlb9-FL-17" target="m2up6miVIFS3Wzlb9-FL-4">
          <mxGeometry relative="1" as="geometry">
            <mxPoint x="350" y="262" as="sourcePoint" />
            <mxPoint x="500" y="250" as="targetPoint" />
          </mxGeometry>
        </mxCell>
        <mxCell id="R6itS-iFLOPnTj6HhxoP-11" value="0..n" style="edgeLabel;resizable=0;html=1;align=left;verticalAlign=top;" connectable="0" vertex="1" parent="R6itS-iFLOPnTj6HhxoP-10">
          <mxGeometry x="-1" relative="1" as="geometry">
            <mxPoint y="-16" as="offset" />
          </mxGeometry>
        </mxCell>
        <mxCell id="R6itS-iFLOPnTj6HhxoP-12" value="1" style="edgeLabel;resizable=0;html=1;align=right;verticalAlign=top;" connectable="0" vertex="1" parent="R6itS-iFLOPnTj6HhxoP-10">
          <mxGeometry x="1" relative="1" as="geometry" />
        </mxCell>
        <mxCell id="R6itS-iFLOPnTj6HhxoP-13" value="Relation" style="endArrow=open;html=1;endSize=12;startArrow=diamondThin;startSize=14;startFill=0;edgeStyle=orthogonalEdgeStyle;rounded=0;exitX=0.5;exitY=0;exitDx=0;exitDy=0;entryX=0.481;entryY=0.98;entryDx=0;entryDy=0;entryPerimeter=0;" edge="1" parent="1" source="R6itS-iFLOPnTj6HhxoP-6" target="m2up6miVIFS3Wzlb9-FL-20">
          <mxGeometry relative="1" as="geometry">
            <mxPoint x="338" y="432" as="sourcePoint" />
            <mxPoint x="488" y="420" as="targetPoint" />
          </mxGeometry>
        </mxCell>
        <mxCell id="R6itS-iFLOPnTj6HhxoP-14" value="0..n" style="edgeLabel;resizable=0;html=1;align=left;verticalAlign=top;" connectable="0" vertex="1" parent="R6itS-iFLOPnTj6HhxoP-13">
          <mxGeometry x="-1" relative="1" as="geometry">
            <mxPoint x="10" y="-20" as="offset" />
          </mxGeometry>
        </mxCell>
        <mxCell id="R6itS-iFLOPnTj6HhxoP-15" value="1" style="edgeLabel;resizable=0;html=1;align=right;verticalAlign=top;" connectable="0" vertex="1" parent="R6itS-iFLOPnTj6HhxoP-13">
          <mxGeometry x="1" relative="1" as="geometry" />
        </mxCell>
        <mxCell id="R6itS-iFLOPnTj6HhxoP-17" value="Relation" style="endArrow=open;html=1;endSize=12;startArrow=diamondThin;startSize=14;startFill=0;edgeStyle=orthogonalEdgeStyle;rounded=0;exitX=0;exitY=0.5;exitDx=0;exitDy=0;entryX=1;entryY=0.5;entryDx=0;entryDy=0;" edge="1" parent="1" source="m2up6miVIFS3Wzlb9-FL-10" target="R6itS-iFLOPnTj6HhxoP-7">
          <mxGeometry relative="1" as="geometry">
            <mxPoint x="279.48" y="442" as="sourcePoint" />
            <mxPoint x="429.48" y="430" as="targetPoint" />
          </mxGeometry>
        </mxCell>
        <mxCell id="R6itS-iFLOPnTj6HhxoP-18" value="0..n" style="edgeLabel;resizable=0;html=1;align=left;verticalAlign=top;" connectable="0" vertex="1" parent="R6itS-iFLOPnTj6HhxoP-17">
          <mxGeometry x="-1" relative="1" as="geometry">
            <mxPoint x="-20" as="offset" />
          </mxGeometry>
        </mxCell>
        <mxCell id="R6itS-iFLOPnTj6HhxoP-19" value="0..n" style="edgeLabel;resizable=0;html=1;align=right;verticalAlign=top;" connectable="0" vertex="1" parent="R6itS-iFLOPnTj6HhxoP-17">
          <mxGeometry x="1" relative="1" as="geometry">
            <mxPoint x="20" as="offset" />
          </mxGeometry>
        </mxCell>
        <mxCell id="R6itS-iFLOPnTj6HhxoP-26" value="Relation" style="endArrow=open;html=1;endSize=12;startArrow=diamondThin;startSize=14;startFill=0;edgeStyle=orthogonalEdgeStyle;rounded=0;entryX=0.473;entryY=1.006;entryDx=0;entryDy=0;entryPerimeter=0;exitX=0.473;exitY=-0.013;exitDx=0;exitDy=0;exitPerimeter=0;" edge="1" parent="1" source="m2up6miVIFS3Wzlb9-FL-29" target="m2up6miVIFS3Wzlb9-FL-24">
          <mxGeometry relative="1" as="geometry">
            <mxPoint x="780.26" y="936" as="sourcePoint" />
            <mxPoint x="779.26" y="870" as="targetPoint" />
          </mxGeometry>
        </mxCell>
        <mxCell id="R6itS-iFLOPnTj6HhxoP-27" value="0..n" style="edgeLabel;resizable=0;html=1;align=left;verticalAlign=top;" connectable="0" vertex="1" parent="R6itS-iFLOPnTj6HhxoP-26">
          <mxGeometry x="-1" relative="1" as="geometry">
            <mxPoint x="10" y="-20" as="offset" />
          </mxGeometry>
        </mxCell>
        <mxCell id="R6itS-iFLOPnTj6HhxoP-28" value="1" style="edgeLabel;resizable=0;html=1;align=right;verticalAlign=top;" connectable="0" vertex="1" parent="R6itS-iFLOPnTj6HhxoP-26">
          <mxGeometry x="1" relative="1" as="geometry" />
        </mxCell>
        <mxCell id="R6itS-iFLOPnTj6HhxoP-29" value="Relation" style="endArrow=open;html=1;endSize=12;startArrow=diamondThin;startSize=14;startFill=0;edgeStyle=orthogonalEdgeStyle;rounded=0;entryX=0;entryY=0.5;entryDx=0;entryDy=0;exitX=1;exitY=0.5;exitDx=0;exitDy=0;" edge="1" parent="1" source="m2up6miVIFS3Wzlb9-FL-26" target="m2up6miVIFS3Wzlb9-FL-30">
          <mxGeometry relative="1" as="geometry">
            <mxPoint x="785" y="958" as="sourcePoint" />
            <mxPoint x="785" y="874" as="targetPoint" />
          </mxGeometry>
        </mxCell>
        <mxCell id="R6itS-iFLOPnTj6HhxoP-30" value="0..n" style="edgeLabel;resizable=0;html=1;align=left;verticalAlign=top;" connectable="0" vertex="1" parent="R6itS-iFLOPnTj6HhxoP-29">
          <mxGeometry x="-1" relative="1" as="geometry">
            <mxPoint x="10" y="-20" as="offset" />
          </mxGeometry>
        </mxCell>
        <mxCell id="R6itS-iFLOPnTj6HhxoP-31" value="1" style="edgeLabel;resizable=0;html=1;align=right;verticalAlign=top;" connectable="0" vertex="1" parent="R6itS-iFLOPnTj6HhxoP-29">
          <mxGeometry x="1" relative="1" as="geometry" />
        </mxCell>
        <mxCell id="R6itS-iFLOPnTj6HhxoP-32" value="Relation" style="endArrow=open;html=1;endSize=12;startArrow=diamondThin;startSize=14;startFill=0;edgeStyle=orthogonalEdgeStyle;rounded=0;entryX=0.437;entryY=1.021;entryDx=0;entryDy=0;entryPerimeter=0;" edge="1" parent="1" source="m2up6miVIFS3Wzlb9-FL-26" target="m2up6miVIFS3Wzlb9-FL-8">
          <mxGeometry relative="1" as="geometry">
            <mxPoint x="240" y="730" as="sourcePoint" />
            <mxPoint x="56.97000000000003" y="400" as="targetPoint" />
          </mxGeometry>
        </mxCell>
        <mxCell id="R6itS-iFLOPnTj6HhxoP-33" value="0..n" style="edgeLabel;resizable=0;html=1;align=left;verticalAlign=top;" connectable="0" vertex="1" parent="R6itS-iFLOPnTj6HhxoP-32">
          <mxGeometry x="-1" relative="1" as="geometry">
            <mxPoint x="10" y="-20" as="offset" />
          </mxGeometry>
        </mxCell>
        <mxCell id="R6itS-iFLOPnTj6HhxoP-34" value="1" style="edgeLabel;resizable=0;html=1;align=right;verticalAlign=top;" connectable="0" vertex="1" parent="R6itS-iFLOPnTj6HhxoP-32">
          <mxGeometry x="1" relative="1" as="geometry" />
        </mxCell>
        <mxCell id="R6itS-iFLOPnTj6HhxoP-35" value="Order" style="endArrow=open;html=1;endSize=12;startArrow=diamondThin;startSize=14;startFill=0;edgeStyle=orthogonalEdgeStyle;rounded=0;exitX=0.5;exitY=0;exitDx=0;exitDy=0;entryX=0.5;entryY=0;entryDx=0;entryDy=0;" edge="1" parent="1" source="m2up6miVIFS3Wzlb9-FL-9" target="m2up6miVIFS3Wzlb9-FL-5">
          <mxGeometry relative="1" as="geometry">
            <mxPoint x="530" y="470" as="sourcePoint" />
            <mxPoint x="527" y="403" as="targetPoint" />
            <Array as="points">
              <mxPoint x="780" y="40" />
              <mxPoint x="140" y="40" />
            </Array>
          </mxGeometry>
        </mxCell>
        <mxCell id="R6itS-iFLOPnTj6HhxoP-36" value="0..n" style="edgeLabel;resizable=0;html=1;align=left;verticalAlign=top;" connectable="0" vertex="1" parent="R6itS-iFLOPnTj6HhxoP-35">
          <mxGeometry x="-1" relative="1" as="geometry">
            <mxPoint x="10" y="-20" as="offset" />
          </mxGeometry>
        </mxCell>
        <mxCell id="R6itS-iFLOPnTj6HhxoP-37" value="1" style="edgeLabel;resizable=0;html=1;align=right;verticalAlign=top;" connectable="0" vertex="1" parent="R6itS-iFLOPnTj6HhxoP-35">
          <mxGeometry x="1" relative="1" as="geometry">
            <mxPoint x="20" y="-20" as="offset" />
          </mxGeometry>
        </mxCell>
        <mxCell id="R6itS-iFLOPnTj6HhxoP-3" value="Relation" style="endArrow=open;html=1;endSize=12;startArrow=diamondThin;startSize=14;startFill=0;edgeStyle=orthogonalEdgeStyle;rounded=0;exitX=1.01;exitY=0.432;exitDx=0;exitDy=0;entryX=0;entryY=0.5;entryDx=0;entryDy=0;exitPerimeter=0;" edge="1" parent="1" source="m2up6miVIFS3Wzlb9-FL-6" target="m2up6miVIFS3Wzlb9-FL-2">
          <mxGeometry relative="1" as="geometry">
            <mxPoint x="250" y="195" as="sourcePoint" />
            <mxPoint x="467" y="113" as="targetPoint" />
            <Array as="points">
              <mxPoint x="327" y="195" />
              <mxPoint x="327" y="113" />
            </Array>
          </mxGeometry>
        </mxCell>
        <mxCell id="R6itS-iFLOPnTj6HhxoP-4" value="0..n" style="edgeLabel;resizable=0;html=1;align=left;verticalAlign=top;" connectable="0" vertex="1" parent="R6itS-iFLOPnTj6HhxoP-3">
          <mxGeometry x="-1" relative="1" as="geometry" />
        </mxCell>
        <mxCell id="R6itS-iFLOPnTj6HhxoP-5" value="1" style="edgeLabel;resizable=0;html=1;align=right;verticalAlign=top;" connectable="0" vertex="1" parent="R6itS-iFLOPnTj6HhxoP-3">
          <mxGeometry x="1" relative="1" as="geometry" />
        </mxCell>
        <mxCell id="R6itS-iFLOPnTj6HhxoP-38" value="Relation" style="endArrow=open;html=1;endSize=12;startArrow=diamondThin;startSize=14;startFill=0;edgeStyle=orthogonalEdgeStyle;rounded=0;entryX=0;entryY=0.5;entryDx=0;entryDy=0;" edge="1" parent="1" source="m2up6miVIFS3Wzlb9-FL-14" target="R6itS-iFLOPnTj6HhxoP-7">
          <mxGeometry relative="1" as="geometry">
            <mxPoint x="700" y="542" as="sourcePoint" />
            <mxPoint x="620" y="543" as="targetPoint" />
          </mxGeometry>
        </mxCell>
        <mxCell id="R6itS-iFLOPnTj6HhxoP-39" value="0..n" style="edgeLabel;resizable=0;html=1;align=left;verticalAlign=top;" connectable="0" vertex="1" parent="R6itS-iFLOPnTj6HhxoP-38">
          <mxGeometry x="-1" relative="1" as="geometry">
            <mxPoint x="-20" as="offset" />
          </mxGeometry>
        </mxCell>
        <mxCell id="R6itS-iFLOPnTj6HhxoP-40" value="0..n" style="edgeLabel;resizable=0;html=1;align=right;verticalAlign=top;" connectable="0" vertex="1" parent="R6itS-iFLOPnTj6HhxoP-38">
          <mxGeometry x="1" relative="1" as="geometry">
            <mxPoint x="20" as="offset" />
          </mxGeometry>
        </mxCell>
        <mxCell id="R6itS-iFLOPnTj6HhxoP-41" value="Relation" style="endArrow=open;html=1;endSize=12;startArrow=diamondThin;startSize=14;startFill=0;edgeStyle=orthogonalEdgeStyle;rounded=0;entryX=1;entryY=0.5;entryDx=0;entryDy=0;exitX=1;exitY=0.5;exitDx=0;exitDy=0;" edge="1" parent="1" source="m2up6miVIFS3Wzlb9-FL-22" target="m2up6miVIFS3Wzlb9-FL-18">
          <mxGeometry relative="1" as="geometry">
            <mxPoint x="920" y="800" as="sourcePoint" />
            <mxPoint x="640" y="220" as="targetPoint" />
            <Array as="points">
              <mxPoint x="920" y="768" />
              <mxPoint x="920" y="328" />
            </Array>
          </mxGeometry>
        </mxCell>
        <mxCell id="R6itS-iFLOPnTj6HhxoP-42" value="0..n" style="edgeLabel;resizable=0;html=1;align=left;verticalAlign=top;" connectable="0" vertex="1" parent="R6itS-iFLOPnTj6HhxoP-41">
          <mxGeometry x="-1" relative="1" as="geometry">
            <mxPoint x="10" y="-20" as="offset" />
          </mxGeometry>
        </mxCell>
        <mxCell id="R6itS-iFLOPnTj6HhxoP-43" value="1" style="edgeLabel;resizable=0;html=1;align=right;verticalAlign=top;" connectable="0" vertex="1" parent="R6itS-iFLOPnTj6HhxoP-41">
          <mxGeometry x="1" relative="1" as="geometry" />
        </mxCell>
        <mxCell id="R6itS-iFLOPnTj6HhxoP-44" value="Relation" style="endArrow=open;html=1;endSize=12;startArrow=diamondThin;startSize=14;startFill=0;edgeStyle=orthogonalEdgeStyle;rounded=0;entryX=0.437;entryY=1.021;entryDx=0;entryDy=0;entryPerimeter=0;exitX=0.516;exitY=1.055;exitDx=0;exitDy=0;exitPerimeter=0;" edge="1" parent="1" source="m2up6miVIFS3Wzlb9-FL-32">
          <mxGeometry relative="1" as="geometry">
            <mxPoint x="321" y="1027" as="sourcePoint" />
            <mxPoint x="70" y="294" as="targetPoint" />
            <Array as="points">
              <mxPoint x="783" y="1150" />
              <mxPoint x="71" y="1150" />
              <mxPoint x="71" y="294" />
            </Array>
          </mxGeometry>
        </mxCell>
        <mxCell id="R6itS-iFLOPnTj6HhxoP-45" value="0..n" style="edgeLabel;resizable=0;html=1;align=left;verticalAlign=top;" connectable="0" vertex="1" parent="R6itS-iFLOPnTj6HhxoP-44">
          <mxGeometry x="-1" relative="1" as="geometry">
            <mxPoint x="10" y="-20" as="offset" />
          </mxGeometry>
        </mxCell>
        <mxCell id="R6itS-iFLOPnTj6HhxoP-46" value="1" style="edgeLabel;resizable=0;html=1;align=right;verticalAlign=top;" connectable="0" vertex="1" parent="R6itS-iFLOPnTj6HhxoP-44">
          <mxGeometry x="1" relative="1" as="geometry" />
        </mxCell>
      </root>
    </mxGraphModel>
  </diagram>
</mxfile>
